<svg width="52" height="52" viewBox="0 0 52 52" fill="none" xmlns="http://www.w3.org/2000/svg">
<path d="M29.1829 31.8438V24.4242C29.1829 23.094 30.2613 22.0156 31.5915 22.0156V22.0156C32.9217 22.0156 34 23.094 34 24.4242V32.7196C34 34.5391 33.2737 36.2834 31.9823 37.5652V37.5652C30.7034 38.8346 28.9746 39.5469 27.1727 39.5469H27.1234C26.0148 39.5469 24.9222 39.8122 23.9371 40.3206L18.7459 43M18.4783 33.9688L19.4901 33.2287C22.1101 31.3126 23.9185 28.4855 24.5597 25.3035L27.5117 10.6532C27.7055 9.69163 28.5504 9 29.5313 9V9C30.6691 9 31.5915 9.92237 31.5915 11.0602V22.0156" stroke="#FF7E2E" stroke-width="3" stroke-linecap="round"/>
</svg>
