<svg width="52" height="52" viewBox="0 0 52 52" fill="none" xmlns="http://www.w3.org/2000/svg">
<path d="M23.6552 31.8438V24.3432C23.6552 23.0577 22.6131 22.0156 21.3276 22.0156V22.0156C20.0421 22.0156 19 23.0577 19 24.3432V32.8346C19 34.5837 19.6828 36.2638 20.903 37.517L20.9541 37.5695C22.185 38.8338 23.8746 39.5469 25.6391 39.5469V39.5469C26.7137 39.5469 27.7717 39.8117 28.7196 40.318L33.7414 43M34 33.9688L33.0511 33.2506C30.498 31.3185 28.7478 28.5121 28.1358 25.3693L25.2609 10.6056C25.0793 9.6731 24.2625 9 23.3126 9V9C22.2163 9 21.3276 9.8887 21.3276 10.985V22.0156" stroke="#FF7E2E" stroke-width="3" stroke-linecap="round"/>
</svg>
